<?xml version="1.0" encoding="UTF-8"?>
<svg version="1.1" xmlns="http://www.w3.org/2000/svg" width="500" height="500">
<path d="M0 0 C165 0 330 0 500 0 C500 165 500 330 500 500 C335 500 170 500 0 500 C0 335 0 170 0 0 Z " fill="#232323" transform="translate(0,0)"/>
<path d="M0 0 C9.24 0 18.48 0 28 0 C28 130.35 28 260.7 28 395 C162.97 395 297.94 395 437 395 C437 408.86 437 422.72 437 437 C292.79 437 148.58 437 0 437 C0 292.79 0 148.58 0 0 Z " fill="#242424" transform="translate(18,53)"/>
<path d="M0 0 C144.21 0 288.42 0 437 0 C437 144.21 437 288.42 437 437 C427.76 437 418.52 437 409 437 C409 306.65 409 176.3 409 42 C274.03 42 139.06 42 0 42 C0 28.14 0 14.28 0 0 Z " fill="#242424" transform="translate(48,10)"/>
<path d="M0 0 C165 0 330 0 500 0 C500 165 500 330 500 500 C335 500 170 500 0 500 C0 335 0 170 0 0 Z M46 8 C46 22.52 46 37.04 46 52 C36.43 52 26.86 52 17 52 C17 197.2 17 342.4 17 492 C162.2 492 307.4 492 457 492 C457 477.48 457 462.96 457 448 C466.57 448 476.14 448 486 448 C486 302.8 486 157.6 486 8 C340.8 8 195.6 8 46 8 Z " fill="#242424" transform="translate(0,0)"/>
<path d="M0 0 C14.52 0 29.04 0 44 0 C45.98002649 4.95006623 46.27280252 8.55674122 46.22705078 13.73754883 C46.22734283 14.60634674 46.22763489 15.47514465 46.22793579 16.37026978 C46.22654608 19.23262634 46.2110017 22.09472034 46.1953125 24.95703125 C46.1915811 26.94528562 46.18873473 28.93354184 46.18673706 30.92179871 C46.17911063 36.14803162 46.15947059 41.3741529 46.1373291 46.6003418 C46.11324695 52.87457726 46.10408498 59.14885011 46.09242249 65.42311859 C46.07304568 74.9488233 46.03471612 84.4742832 46 94 C69.76 94 93.52 94 118 94 C118 62.98 118 31.96 118 0 C132.19 0 146.38 0 161 0 C163.25 5.625 163.25 5.625 163.24609566 9.16038227 C163.25007775 9.96106831 163.25405985 10.76175435 163.25816262 11.5867036 C163.25233693 12.45538465 163.24651125 13.32406571 163.24050903 14.21907043 C163.24221788 15.15030894 163.24392673 16.08154745 163.24568737 17.04100531 C163.2489826 20.16258759 163.2379779 23.28395509 163.22705078 26.40551758 C163.22648668 28.6426798 163.22680321 30.87984239 163.22793579 33.11700439 C163.22851033 39.19299317 163.21673963 45.26890321 163.20278788 51.34487367 C163.19029737 57.69367211 163.18911134 64.04247229 163.18673706 70.39128113 C163.1812243 81.04822312 163.16872628 91.70513396 163.15087891 102.36206055 C163.13251646 113.33797054 163.11836174 124.31387267 163.10986328 135.28979492 C163.10933783 135.9665293 163.10881239 136.64326368 163.10827102 137.34050516 C163.10566091 140.73553611 163.1031335 144.13056712 163.10064721 147.52559817 C163.0799191 175.68375678 163.04305171 203.84186619 163 232 C148.81 232 134.62 232 120 232 C120 231.34 120 230.68 120 230 C119.34 230 118.68 230 118 230 C118 198.98 118 167.96 118 136 C93.58 136 69.16 136 44 136 C44 167.02 44 198.04 44 230 C29.48 230 14.96 230 0 230 C0 154.1 0 78.2 0 0 Z " fill="#FCFCFC" transform="translate(60,126)"/>
<path d="M0 0 C1.89576782 0.01027222 1.89576782 0.01027222 3.82983398 0.02075195 C28.31852546 0.43964366 48.73878444 9.28259526 65.953125 26.734375 C71.72214393 32.93072866 75.82757057 38.83820571 76.6875 47.4375 C77.3475 47.4375 78.0075 47.4375 78.6875 47.4375 C81.84765102 62.29020978 83.6875 76.12817668 83.6875 91.4375 C69.1675 91.4375 54.6475 91.4375 39.6875 91.4375 C39.1925 82.5275 39.1925 82.5275 38.6875 73.4375 C36.25125165 63.2413495 33.22831887 54.47175844 24.5625 48.0625 C14.49397554 41.99102796 2.4749446 41.11696902 -8.9375 43.0625 C-13.46128601 44.19962654 -17.15485232 46.49054497 -21.05078125 49 C-23.3125 50.4375 -23.3125 50.4375 -25.48046875 51.375 C-27.81695395 52.73006178 -28.2629018 53.98389383 -29.3125 56.4375 C-30.11307584 57.6951703 -30.92598533 58.94506043 -31.75 60.1875 C-39.47117119 72.47324593 -39.61574262 85.65651568 -39.578125 99.71875 C-39.57947455 101.50036675 -39.58141749 103.28198314 -39.58392334 105.06359863 C-39.58686097 108.78543629 -39.58262094 112.50717752 -39.57324219 116.22900391 C-39.5618485 120.97986784 -39.56841528 125.73050573 -39.58038712 130.48136139 C-39.58764258 134.15669431 -39.58530091 137.83197437 -39.58013153 141.50730896 C-39.57880522 143.25825528 -39.58040673 145.00920653 -39.58509064 146.76014709 C-39.60278291 155.23120668 -39.55733104 163.20273747 -37.3125 171.4375 C-37.3125 172.7575 -37.3125 174.0775 -37.3125 175.4375 C-36.6525 175.4375 -35.9925 175.4375 -35.3125 175.4375 C-35.085625 176.2625 -34.85875 177.0875 -34.625 177.9375 C-31.34658602 186.67993728 -26.36120717 192.83070454 -17.8125 196.75 C-6.84201978 200.44198854 8.91269364 200.55489108 19.50390625 195.69140625 C28.31917443 190.62932917 34.25554607 184.53005015 37.5 174.6875 C39.20095509 165.73510478 39.25406004 156.53973919 39.6875 147.4375 C54.2075 147.4375 68.7275 147.4375 83.6875 147.4375 C83.6875 148.4275 83.6875 149.4175 83.6875 150.4375 C84.3475 150.4375 85.0075 150.4375 85.6875 150.4375 C86.45630128 175.03914095 82.04623009 198.19193519 65.6875 217.4375 C65.11515625 218.118125 64.5428125 218.79875 63.953125 219.5 C51.73758457 232.86401005 32.35646916 239.48935712 14.68630981 240.55859375 C10.36745165 240.73374882 6.05172522 240.76602131 1.72973633 240.75317383 C-0.50813483 240.74998842 -2.74471037 240.77366883 -4.98242188 240.79882812 C-12.05228437 240.82904957 -18.56524191 240.62910554 -25.28881836 238.15600586 C-27.42074365 237.39906822 -29.45398669 237.02322753 -31.6875 236.6875 C-46.77359534 233.37914576 -61.96583503 218.94960836 -70.3125 206.4375 C-73.28004026 201.25838889 -75.88092649 195.88656834 -78.3125 190.4375 C-78.78220215 189.42916611 -79.2519043 188.42083221 -79.73583984 187.38194275 C-85.56629451 173.69430584 -85.90411715 158.27011129 -85.7734375 143.63671875 C-85.77104157 141.81793856 -85.77015017 139.99915584 -85.7706604 138.18037415 C-85.76756832 134.40809141 -85.75127987 130.63619843 -85.72412109 126.86401367 C-85.69002398 122.07255317 -85.68249845 117.28151503 -85.68401146 112.48994732 C-85.68346331 108.74831752 -85.67242749 105.00677667 -85.65800858 101.26517677 C-85.65172906 99.49965902 -85.64772292 97.73413141 -85.64622116 95.96860313 C-85.62155728 82.14690586 -85.26395813 68.34789293 -80.5625 55.1875 C-80.29937012 54.43082031 -80.03624023 53.67414063 -79.76513672 52.89453125 C-73.01160649 34.06992047 -59.62482128 17.54219515 -41.53271484 8.55322266 C-28.18941279 2.3950489 -14.67757067 -0.12330777 0 0 Z " fill="#FDFDFD" transform="translate(360.3125,121.5625)"/>
<path d="M0 0 C145.2 0 290.4 0 440 0 C440 145.2 440 290.4 440 440 C430.43 440 420.86 440 411 440 C411 454.52 411 469.04 411 484 C265.8 484 120.6 484 -29 484 C-29 338.8 -29 193.6 -29 44 C-19.43 44 -9.86 44 0 44 C0 29.48 0 14.96 0 0 Z M2 2 C2 15.86 2 29.72 2 44 C136.97 44 271.94 44 411 44 C411 174.35 411 304.7 411 439 C420.24 439 429.48 439 439 439 C439 294.79 439 150.58 439 2 C294.79 2 150.58 2 2 2 Z M-28 45 C-28 189.21 -28 333.42 -28 482 C116.21 482 260.42 482 409 482 C409 468.14 409 454.28 409 440 C274.03 440 139.06 440 0 440 C0 309.65 0 179.3 0 45 C-9.24 45 -18.48 45 -28 45 Z M2 46 C2 175.36 2 304.72 2 438 C136.31 438 270.62 438 409 438 C409 308.64 409 179.28 409 46 C274.69 46 140.38 46 2 46 Z " fill="#BFBFBF" transform="translate(46,8)"/>
<path d="M0 0 C0.33 0 0.66 0 1 0 C1 145.2 1 290.4 1 440 C-8.57 440 -18.14 440 -28 440 C-28 454.52 -28 469.04 -28 484 C-173.2 484 -318.4 484 -468 484 C-468 338.8 -468 193.6 -468 44 C-458.76 44 -449.52 44 -440 44 C-440 44.33 -440 44.66 -440 45 C-448.91 45 -457.82 45 -467 45 C-467 189.21 -467 333.42 -467 482 C-322.79 482 -178.58 482 -30 482 C-30 467.81 -30 453.62 -30 439 C-29.95655668 415.92260555 -29.95655668 415.92260555 -29.9365387 408.5827179 C-29.93189444 406.82543756 -29.92725667 405.06815721 -29.92262459 403.31087685 C-29.92025929 402.42113761 -29.91789399 401.53139837 -29.91545701 400.61469734 C-29.9027798 395.79809475 -29.89075902 390.98149051 -29.87864685 386.16488647 C-29.85772113 377.87699605 -29.83640619 369.58910672 -29.81480408 361.30121803 C-29.78357408 349.31925658 -29.75296655 337.3372936 -29.72249681 325.35533019 C-29.67301012 305.90151785 -29.62304026 286.44770678 -29.57275391 266.99389648 C-29.52399171 248.12931381 -29.47546494 229.26473055 -29.42724609 210.40014648 C-29.4242591 209.23158034 -29.4212721 208.0630142 -29.41819459 206.85903696 C-29.40320675 200.9949661 -29.38822344 195.13089524 -29.37324238 189.26682436 C-29.2495312 140.84454776 -29.12503058 92.42227321 -29 44 C-28.67 44 -28.34 44 -28 44 C-28 174.35 -28 304.7 -28 439 C-18.76 439 -9.52 439 0 439 C0 294.13 0 149.26 0 0 Z " fill="#CDCDCD" transform="translate(485,8)"/>
<path d="M0 0 C24.42 0 48.84 0 74 0 C74 31.02 74 62.04 74 94 C73.67 94 73.34 94 73 94 C73 63.97 73 33.94 73 3 C50.23 3 27.46 3 4 3 C4 34.35 4 65.7 4 98 C-10.19 98 -24.38 98 -39 98 C-39 97.34 -39 96.68 -39 96 C-39.99 96 -40.98 96 -42 96 C-42 95.34 -42 94.68 -42 94 C-28.14 94 -14.28 94 0 94 C0 62.98 0 31.96 0 0 Z " fill="#5C5C5C" transform="translate(104,262)"/>
<path d="M0 0 C0.66 0 1.32 0 2 0 C2 0.66 2 1.32 2 2 C2.66 2 3.32 2 4 2 C4 77.9 4 153.8 4 232 C-10.19 232 -24.38 232 -39 232 C-39 231.34 -39 230.68 -39 230 C-25.47 230 -11.94 230 2 230 C1.89512595 201.13258437 1.78562916 172.26519088 1.66888306 143.39782063 C1.65511304 139.99185779 1.64138601 136.58589477 1.62768555 133.17993164 C1.62495724 132.50184902 1.62222894 131.8237664 1.61941796 131.12513582 C1.57531041 120.13731022 1.53468798 109.14947435 1.49534739 98.16163077 C1.4549205 86.89198702 1.4106887 75.62236257 1.36312145 64.35274631 C1.33651629 58.02072521 1.31166308 51.68870792 1.29092598 45.35666466 C1.27137019 39.40190364 1.24722955 33.44717915 1.21950912 27.49245071 C1.21013309 25.30225219 1.2024598 23.11204565 1.19658089 20.92183495 C1.18832913 17.94070344 1.174055 14.95966082 1.15821838 11.9785614 C1.15724028 11.10405466 1.15626217 10.22954792 1.15525442 9.32854098 C1.13218829 5.97169303 1.06885623 3.20656868 0 0 Z " fill="#6A6A6A" transform="translate(221,128)"/>
<path d="M0 0 C2.65089328 2.65089328 2.24009285 4.59324941 2.25816262 8.19945967 C2.24942409 9.51558904 2.24942409 9.51558904 2.24050903 10.85830688 C2.24221788 11.78698212 2.24392673 12.71565736 2.24568737 13.67247427 C2.24899768 16.80337364 2.23795327 19.93406158 2.22705078 23.06494141 C2.226487 25.30166112 2.22680258 27.53838121 2.22793579 29.77510071 C2.2285116 35.86366323 2.21672051 41.95214757 2.20278788 48.04069185 C2.19031838 54.39751576 2.18911301 60.75434129 2.18673706 67.11117554 C2.18121931 77.78604654 2.16871151 88.46088652 2.15087891 99.13574219 C2.1325282 110.13215999 2.11836774 121.12856998 2.10986328 132.125 C2.10907511 133.14128382 2.10907511 133.14128382 2.10827102 134.17809863 C2.10566099 137.57694149 2.10313356 140.9757844 2.10064721 144.37462735 C2.07990496 172.58310946 2.04302996 200.7915426 2 229 C-12.19 229 -26.38 229 -41 229 C-41 228.34 -41 227.68 -41 227 C-27.47 227 -13.94 227 0 227 C0 152.09 0 77.18 0 0 Z " fill="#B6B6B6" transform="translate(221,129)"/>
<path d="M0 0 C0.66 0 1.32 0 2 0 C2.76880128 24.60164095 -1.64126991 47.75443519 -18 67 C-18.57234375 67.680625 -19.1446875 68.36125 -19.734375 69.0625 C-31.94991543 82.42651005 -51.33103084 89.05185712 -69.00119019 90.12109375 C-73.32004835 90.29624882 -77.63577478 90.32852131 -81.95776367 90.31567383 C-84.19563483 90.31248842 -86.43221037 90.33616883 -88.66992188 90.36132812 C-95.73045768 90.39160801 -102.24184652 90.19505047 -108.95800781 87.73071289 C-111.14742475 86.94724506 -113.27347781 86.51818238 -115.5625 86.125 C-120.58482447 85.08466136 -124.67403015 82.67944232 -129 80 C-127.02 79.505 -127.02 79.505 -125 79 C-125 79.66 -125 80.32 -125 81 C-123.99259766 81.185625 -123.99259766 81.185625 -122.96484375 81.375 C-118.80039459 82.25288125 -114.71516639 83.4040763 -110.61523438 84.5390625 C-85.6676103 91.32684245 -56.43944809 88.06275852 -33.8125 75.8125 C-18.43647 66.39240257 -10.13770116 51.903429 -5 35 C-4.70351563 34.09507812 -4.40703125 33.19015625 -4.1015625 32.2578125 C-1.05108862 21.83787698 -0.76301092 10.77804299 0 0 Z " fill="#B2B2B2" transform="translate(444,272)"/>
<path d="M0 0 C24.42 0 48.84 0 74 0 C74 0.66 74 1.32 74 2 C50.24 2 26.48 2 2 2 C2 33.02 2 64.04 2 96 C-12.52 96 -27.04 96 -42 96 C-42 95.34 -42 94.68 -42 94 C-28.14 94 -14.28 94 0 94 C0 62.98 0 31.96 0 0 Z " fill="#A7A7A7" transform="translate(104,262)"/>
<path d="M0 0 C0.66 0 1.32 0 2 0 C2.54844661 24.89338228 -0.85391661 49.9849308 -18.73828125 68.7265625 C-19.48464844 69.47679687 -20.23101562 70.22703125 -21 71 C-21.59167969 71.62648438 -22.18335938 72.25296875 -22.79296875 72.8984375 C-38.33104422 88.05920871 -61.11901305 91.17734696 -81.75 91.1875 C-83.04421875 91.19974609 -84.3384375 91.21199219 -85.671875 91.22460938 C-97.0606136 91.24183025 -107.29963709 89.9234664 -118 86 C-118 85.67 -118 85.34 -118 85 C-116.62422639 85.11617644 -115.24938955 85.24345777 -113.875 85.375 C-113.10929687 85.44460938 -112.34359375 85.51421875 -111.5546875 85.5859375 C-109 86 -109 86 -106.30664062 87.00708008 C-100.63129019 88.71127752 -94.77838492 88.33275876 -88.89990234 88.31567383 C-86.66582392 88.31255696 -84.43312961 88.33584719 -82.19921875 88.36132812 C-60.68878238 88.45683089 -38.71109212 83.52324264 -22.6875 68.25 C-7.25701544 51.8798385 -1.58507865 30.01699643 -0.4375 8.0625 C-0.37272461 6.89364258 -0.37272461 6.89364258 -0.30664062 5.70117188 C-0.20171923 3.80092883 -0.1004755 1.90048331 0 0 Z " fill="#646464" transform="translate(446,273)"/>
<path d="M0 0 C-3.22656989 1.0755233 -3.83251067 0.94716176 -6.9375 0.0625 C-17.77544607 -2.52803345 -28.7255942 -1.738148 -38.3125 4 C-39.11300781 4.515625 -39.91351563 5.03125 -40.73828125 5.5625 C-43 7 -43 7 -45.16796875 7.9375 C-47.50445395 9.29256178 -47.9504018 10.54639383 -49 13 C-49.80057584 14.2576703 -50.61348533 15.50756043 -51.4375 16.75 C-59.15867119 29.03574593 -59.30324262 42.21901568 -59.265625 56.28125 C-59.26697455 58.06286675 -59.26891749 59.84448314 -59.27142334 61.62609863 C-59.27436097 65.34793629 -59.27012094 69.06967752 -59.26074219 72.79150391 C-59.2493485 77.54236784 -59.25591528 82.29300573 -59.26788712 87.04386139 C-59.27514258 90.71919431 -59.27280091 94.39447437 -59.26763153 98.06980896 C-59.26630522 99.82075528 -59.26790673 101.57170653 -59.27259064 103.32264709 C-59.29028291 111.79370668 -59.24483104 119.76523747 -57 128 C-57 129.32 -57 130.64 -57 132 C-56.34 132 -55.68 132 -55 132 C-55 133.65 -55 135.3 -55 137 C-63.60518555 126.43909046 -62.32480805 111.59055508 -62.3359375 98.734375 C-62.34238125 96.96999 -62.34911072 95.20560603 -62.35610962 93.44122314 C-62.36802559 89.75652595 -62.37179634 86.07192211 -62.37060547 82.38720703 C-62.37040261 77.70632111 -62.39769637 73.0260445 -62.43214989 68.34530258 C-62.45457877 64.70403387 -62.45843816 61.06290811 -62.45738602 57.42157745 C-62.45971833 55.69789787 -62.46840504 53.97421287 -62.48405075 52.25060272 C-62.62847048 34.69879339 -59.905183 19.69314088 -48 6 C-33.43677901 -5.39932634 -17.05914446 -7.11591873 0 0 Z " fill="#B1B1B1" transform="translate(380,165)"/>
<path d="M0 0 C-2 1 -2 1 -3.8046875 0.4765625 C-4.82949219 0.05503906 -4.82949219 0.05503906 -5.875 -0.375 C-15.20052896 -4.1690365 -26.47988327 -4.55939964 -36 -1 C-47.478753 4.55309071 -54.43176186 12.06744694 -59 24 C-62.39920199 34.16493097 -62.4251661 43.92674474 -62.36328125 54.50390625 C-62.36276123 56.27644348 -62.36328442 58.04898128 -62.36479187 59.82151794 C-62.3647027 63.51708711 -62.3543851 67.21243566 -62.33618164 70.90795898 C-62.31347998 75.61707813 -62.31295948 80.32587629 -62.31969929 85.03503513 C-62.32305897 88.68900853 -62.316372 92.34291029 -62.30657005 95.99687004 C-62.30275342 97.73220379 -62.30155495 99.46754556 -62.3031559 101.20288277 C-62.3045651 110.3342359 -62.16677324 119.06549693 -60 128 C-60.66 128 -61.32 128 -62 128 C-65.11816782 117.36229901 -65.4433509 107.42859529 -65.3984375 96.43359375 C-65.40046435 94.66488017 -65.40338083 92.89616742 -65.40713501 91.12745667 C-65.41152852 87.44206695 -65.40522336 83.75689712 -65.39111328 80.0715332 C-65.37401053 75.37927239 -65.38388848 70.68752615 -65.40183067 65.99528408 C-65.4127387 62.34984043 -65.40919042 58.70451618 -65.4014473 55.05906868 C-65.39946528 53.33013915 -65.40183312 51.6011983 -65.40888596 49.87228203 C-65.44751603 37.74730213 -64.81513267 26.56421924 -59.0625 15.5625 C-58.57910156 14.61503906 -58.09570312 13.66757813 -57.59765625 12.69140625 C-52.02416066 3.30231466 -42.84927972 -2.99204472 -32.3125 -5.6875 C-20.96348589 -6.75816171 -9.82161665 -6.36355198 0 0 Z " fill="#656565" transform="translate(385,169)"/>
<path d="M0 0 C3.79534514 4.14859154 5.44146829 8.18659011 7.125 13.4375 C7.38361816 14.23663818 7.64223633 15.03577637 7.90869141 15.85913086 C11.9200088 28.71305483 12 40.30171241 12 54 C-2.19 54 -16.38 54 -31 54 C-31 53.34 -31 52.68 -31 52 C-31.66 52 -32.32 52 -33 52 C-33 51.34 -33 50.68 -33 50 C-19.47 50 -5.94 50 8 50 C6.96007956 37.44096087 5.70102741 25.09564359 3.5859375 12.67578125 C3 9 3 9 3 6 C2.34 6 1.68 6 1 6 C0.505 3.03 0.505 3.03 0 0 Z " fill="#656565" transform="translate(436,163)"/>
<path d="M0 0 C3.18889602 3.18889602 3.29476672 7.22991223 4.125 11.5625 C4.30675781 12.41263672 4.48851562 13.26277344 4.67578125 14.13867188 C6.4114585 23.08458733 6 30.42644494 6 40 C-8.19 40 -22.38 40 -37 40 C-37 39.34 -37 38.68 -37 38 C-23.47 38 -9.94 38 4 38 C2.8579016 22.46983639 2.8579016 22.46983639 0.3671875 7.12109375 C-0.04914126 4.71613079 -0.05993666 2.43599696 0 0 Z " fill="#B0B0B0" transform="translate(440,175)"/>
<path d="M0 0 C-3.22656989 1.0755233 -3.83251067 0.94716176 -6.9375 0.0625 C-15.7822618 -2.0516138 -24.29763239 -1.32655134 -33 1 C-34.66534667 1.33986667 -36.33129513 1.67702486 -38 2 C-37 -1 -37 -1 -35.2421875 -1.94921875 C-23.10216282 -5.73546407 -11.66514119 -4.86590619 0 0 Z " fill="#B8B8B8" transform="translate(380,165)"/>
<path d="M0 0 C0.66 0 1.32 0 2 0 C2.20430975 10.21548751 2.2054634 19.95726488 0 30 C-2 28 -2 28 -2.04345703 25.20263672 C-1.94919434 24.04006348 -1.85493164 22.87749023 -1.7578125 21.6796875 C-1.66113281 20.42285156 -1.56445312 19.16601562 -1.46484375 17.87109375 C-1.35179148 16.53904305 -1.23850721 15.20701201 -1.125 13.875 C-1.01855633 12.53523335 -0.9130755 11.19538983 -0.80859375 9.85546875 C-0.54854766 6.56943184 -0.27860504 3.28450702 0 0 Z " fill="#A7A7A7" transform="translate(444,272)"/>
<path d="M0 0 C-3.75766021 3.75766021 -9.89424274 2.95767479 -15 3 C-22.00741225 2.84353875 -29.00524705 2.43748207 -36 2 C-36 1.67 -36 1.34 -36 1 C-35.25427734 0.97494385 -34.50855469 0.9498877 -33.74023438 0.92407227 C-30.32668404 0.80726782 -26.9133531 0.68492755 -23.5 0.5625 C-21.74042969 0.50352539 -21.74042969 0.50352539 -19.9453125 0.44335938 C-12.5925433 0.17656058 -12.5925433 0.17656058 -5.28125 -0.59765625 C-2 -1 -2 -1 0 0 Z " fill="#777777" transform="translate(387,361)"/>
<path d="M0 0 C0.66 0 1.32 0 2 0 C1.88648483 1.81325551 1.75887039 3.62563357 1.625 5.4375 C1.55539062 6.44683594 1.48578125 7.45617187 1.4140625 8.49609375 C1.27742188 9.32238281 1.14078125 10.14867187 1 11 C0.01 11.495 0.01 11.495 -1 12 C-1.02712066 10.56260487 -1.04645067 9.12506137 -1.0625 7.6875 C-1.07410156 6.88699219 -1.08570313 6.08648437 -1.09765625 5.26171875 C-1 3 -1 3 0 0 Z " fill="#6E6E6E" transform="translate(321,200)"/>
<path d="M0 0 C-3.44450737 2.29633824 -5.93812283 2.54016485 -10 3 C-7.00991906 -1.48512141 -4.87831759 -1.18661779 0 0 Z " fill="#5F5F5F" transform="translate(395,360)"/>
<path d="M0 0 C0.33 0 0.66 0 1 0 C0.67 2.97 0.34 5.94 0 9 C-0.66 9 -1.32 9 -2 9 C-1.125 1.125 -1.125 1.125 0 0 Z " fill="#AEAEAE" transform="translate(321,194)"/>
</svg>
