<?xml version="1.0" encoding="UTF-8"?>
<svg version="1.1" xmlns="http://www.w3.org/2000/svg" width="500" height="500">
<path d="M0 0 C165 0 330 0 500 0 C500 165 500 330 500 500 C335 500 170 500 0 500 C0 335 0 170 0 0 Z " fill="#DCDCDC" transform="translate(0,0)"/>
<path d="M0 0 C165 0 330 0 500 0 C500 165 500 330 500 500 C335 500 170 500 0 500 C0 335 0 170 0 0 Z M129 90 C127.7625 91.07314453 127.7625 91.07314453 126.5 92.16796875 C123.9626818 94.40794498 121.47429552 96.69065751 119 99 C118.13761719 99.79664063 117.27523437 100.59328125 116.38671875 101.4140625 C87.36563423 129.21718544 69.58599465 167.21445041 61 206 C60.83338867 206.70125 60.66677734 207.4025 60.49511719 208.125 C57.7391818 219.99321035 57.71409249 231.9424957 57.6875 244.0625 C57.68382416 244.86266541 57.68014832 245.66283081 57.67636108 246.48724365 C57.63804021 262.49143582 58.91356552 278.14644303 62.625 293.75 C62.88369873 294.84707275 63.14239746 295.94414551 63.40893555 297.07446289 C74.14764869 340.87336503 99.13821486 381.34995226 135 409 C135.6074707 409.47808105 136.21494141 409.95616211 136.84082031 410.44873047 C161.15397098 429.45424958 190.45846302 442.98486357 221 448 C222.00281006 448.17136475 222.00281006 448.17136475 223.02587891 448.34619141 C243.00644713 451.59839385 265.11244701 451.7976466 285 448 C285.83982422 447.84934082 286.67964844 447.69868164 287.54492188 447.54345703 C308.08739503 443.79175272 326.6034253 436.76481121 345 427 C345.93457031 426.53335937 346.86914062 426.06671875 347.83203125 425.5859375 C361.73304113 418.45828326 373.75908304 408.72996619 385 398 C386.4300962 396.76222708 387.86677681 395.53198407 389.3125 394.3125 C393.28168988 390.85677822 396.62771749 387.03011996 400 383 C400.76183594 382.12601562 401.52367187 381.25203125 402.30859375 380.3515625 C438.73540762 337.95779783 453.31611007 282.46176136 449.43603516 227.44384766 C445.31247434 176.52718811 421.13432029 127.46473277 383 93.25 C381.67701521 92.15405286 380.34221329 91.0723117 379 90 C377.49953125 88.76056641 377.49953125 88.76056641 375.96875 87.49609375 C367.43730723 80.53671773 358.50304479 74.54761279 349 69 C348.35256836 68.61602051 347.70513672 68.23204102 347.03808594 67.83642578 C278.70317102 27.75504122 188.10470855 38.18866094 129 90 Z " fill="#000000" transform="translate(0,0)"/>
<path d="M0 0 C5.28 0 10.56 0 16 0 C16 19.47 16 38.94 16 59 C35.14 59 54.28 59 74 59 C74 39.53 74 20.06 74 0 C79.28 0 84.56 0 90 0 C90 44.22 90 88.44 90 134 C84.72 134 79.44 134 74 134 C74 114.2 74 94.4 74 74 C54.86 74 35.72 74 16 74 C16 93.8 16 113.6 16 134 C10.72 134 5.44 134 0 134 C0 89.78 0 45.56 0 0 Z " fill="#FEFEFE" transform="translate(150,185)"/>
<path d="M0 0 C1.01513672 0.68642578 1.01513672 0.68642578 2.05078125 1.38671875 C9.42208539 7.06906388 16.08801172 17.51317844 17.8359375 26.78125 C18.2357571 32.18833407 18.10418176 37.58254847 18 43 C12.72 43 7.44 43 2 43 C1.773125 40.73125 1.54625 38.4625 1.3125 36.125 C0.26757895 27.63593629 -1.92946866 20.43160207 -8.5 14.5625 C-16.94101849 8.09470661 -24.17983527 7.18539951 -34.625 8.2734375 C-42.53436492 9.55147512 -47.40142784 12.51628598 -52.1875 18.9375 C-59.62397375 31.41111489 -59.66206045 44.59383954 -59.57641602 58.68505859 C-59.56255357 61.86272139 -59.59672303 65.037428 -59.63476562 68.21484375 C-59.68626949 81.94909522 -59.24097016 97.40338468 -49.8046875 108.453125 C-42.32393592 114.86519779 -33.57134712 116.61025368 -24 116 C-16.78671498 115.05088355 -10.88218868 111.88218868 -5.75 106.75 C-1.72004171 100.41720839 0.94589944 93.79979246 1.5625 86.3125 C1.706875 84.559375 1.85125 82.80625 2 81 C7.28 81 12.56 81 18 81 C18.68644873 93.21878743 16.94257268 105.56085677 8.7265625 115.23046875 C-2.47520366 126.7110119 -13.68664484 132.19378613 -30 132.4375 C-41.84680176 132.34496877 -53.16318789 128.19586098 -62 120.1875 C-73.556453 107.83405025 -76.14934796 91.55508621 -76.16796875 75.2734375 C-76.17129715 74.24876373 -76.17462555 73.22408997 -76.17805481 72.16836548 C-76.18310198 70.00498908 -76.18546382 67.84160494 -76.18530273 65.67822266 C-76.18747909 62.40644116 -76.20563073 59.13500276 -76.22460938 55.86328125 C-76.27672905 37.07149262 -76.05613654 18.29572978 -62 4 C-45.10587915 -11.18846442 -18.89193161 -12.86636243 0 0 Z " fill="#252525" transform="translate(342,190)"/>
</svg>
